<?xml version="1.0" standalone="no"?>
<!DOCTYPE svg PUBLIC "-//W3C//DTD SVG 20010904//EN"
 "http://www.w3.org/TR/2001/REC-SVG-20010904/DTD/svg10.dtd">
<svg version="1.0" xmlns="http://www.w3.org/2000/svg"
 width="183.000000pt" height="183.000000pt" viewBox="0 0 183.000000 183.000000"
 preserveAspectRatio="xMidYMid meet">

<g transform="translate(0.000000,183.000000) scale(0.100000,-0.100000)"
fill="#000000" stroke="none">
<path d="M900 1700 c0 -48 19 -74 21 -27 l0 22 11 -22 c6 -13 15 -23 20 -23
10 0 10 3 -2 35 -7 18 -7 33 0 46 14 24 -5 26 -19 2 -10 -17 -10 -17 -11 0 0
9 -4 17 -10 17 -5 0 -10 -22 -10 -50z"/>
<path d="M830 1696 c0 -50 6 -57 35 -45 17 6 17 8 3 8 -20 1 -25 31 -5 31 6 0
3 6 -7 12 -19 11 -19 11 -1 24 18 13 18 14 -3 14 -19 0 -22 -5 -22 -44z"/>
<path d="M986 1728 c-4 -9 -6 -31 -3 -50 4 -30 5 -31 12 -10 9 27 25 29 25 2
0 -31 17 -23 24 11 9 44 8 59 -4 59 -5 0 -10 -7 -10 -15 0 -21 -28 -19 -33 3
-4 15 -5 16 -11 0z"/>
<path d="M746 1715 c-3 -9 4 -21 19 -31 31 -20 32 -38 3 -29 -21 7 -22 6 -7
-9 19 -21 49 -11 49 15 0 11 -11 24 -25 31 -26 12 -25 31 2 21 11 -4 14 -3 9
5 -10 17 -43 15 -50 -3z"/>
<path d="M1077 1716 c-3 -8 1 -20 9 -26 16 -14 19 -40 5 -40 -5 0 -11 6 -14
13 -2 6 -8 9 -13 4 -12 -12 20 -39 39 -31 21 8 22 37 2 54 -8 7 -12 17 -9 22
4 6 10 5 15 -3 4 -7 11 -10 14 -7 11 11 -5 28 -25 28 -10 0 -20 -6 -23 -14z"/>
<path d="M665 1679 c7 -20 6 -20 -19 -4 -30 20 -34 10 -15 -44 12 -35 34 -44
23 -8 -7 22 -6 22 15 3 11 -11 24 -16 28 -13 8 9 -18 87 -29 87 -5 0 -6 -9 -3
-21z"/>
<path d="M1153 1667 c-29 -42 -29 -45 2 -39 15 2 25 0 25 -7 0 -6 5 -11 10
-11 6 0 10 20 10 45 0 55 -16 58 -47 12z m27 -7 c0 -5 -5 -10 -11 -10 -5 0 -7
5 -4 10 3 6 8 10 11 10 2 0 4 -4 4 -10z"/>
<path d="M1225 1648 c-9 -22 -13 -43 -9 -47 4 -3 9 0 11 7 7 19 23 14 23 -7 0
-11 5 -23 10 -26 6 -3 10 4 10 17 0 13 5 29 11 35 15 15 2 50 -21 56 -14 4
-22 -4 -35 -35z m45 2 c0 -5 -4 -10 -10 -10 -5 0 -10 5 -10 10 0 6 5 10 10 10
6 0 10 -4 10 -10z"/>
<path d="M550 1648 c0 -7 5 -30 11 -51 9 -35 12 -37 23 -21 8 10 20 15 30 11
25 -10 19 6 -17 41 -35 34 -47 39 -47 20z m40 -39 c0 -6 -4 -7 -10 -4 -5 3
-10 11 -10 16 0 6 5 7 10 4 6 -3 10 -11 10 -16z"/>
<path d="M1300 1600 c-11 -22 -16 -40 -10 -40 5 0 19 18 30 40 11 22 16 40 10
40 -5 0 -19 -18 -30 -40z"/>
<path d="M500 1611 c0 -15 -5 -18 -22 -14 -23 4 -23 4 -3 -11 11 -8 30 -25 43
-38 18 -19 22 -20 22 -6 0 9 -4 20 -10 23 -5 3 -10 19 -10 36 0 16 -4 29 -10
29 -5 0 -10 -9 -10 -19z"/>
<path d="M1347 1589 c-43 -35 -46 -46 -15 -45 13 1 23 -4 23 -11 0 -31 15 -20
25 18 7 24 14 47 16 51 2 4 1 9 -4 12 -5 3 -25 -9 -45 -25z m23 -19 c0 -5 -5
-10 -11 -10 -5 0 -7 5 -4 10 3 6 8 10 11 10 2 0 4 -4 4 -10z"/>
<path d="M825 1600 c-3 -4 -14 -6 -25 -3 -11 3 -20 1 -20 -5 0 -6 -10 -8 -22
-4 -15 4 -19 2 -13 -7 5 -10 2 -11 -14 -6 -12 4 -21 2 -21 -4 0 -6 -7 -7 -17
-4 -12 5 -14 3 -8 -7 6 -10 4 -12 -10 -7 -11 5 -23 1 -34 -10 -9 -10 -20 -18
-26 -18 -26 -2 -66 -31 -71 -52 -4 -13 -13 -23 -21 -23 -8 0 -11 -5 -7 -12 4
-7 3 -8 -4 -4 -16 10 -15 26 2 26 8 0 17 7 20 16 5 12 0 11 -22 -5 -31 -22
-104 -98 -83 -86 10 5 12 4 7 -4 -4 -6 -11 -9 -16 -6 -12 7 -33 -22 -24 -36 4
-8 3 -9 -4 -5 -9 5 -11 -4 -7 -31 3 -23 1 -33 -4 -24 -7 10 -12 8 -25 -10 -9
-13 -16 -18 -16 -12 0 7 4 15 10 18 15 9 32 45 22 45 -12 0 -63 -96 -55 -104
3 -3 1 -6 -5 -6 -13 0 -55 -108 -48 -126 3 -7 0 -14 -7 -17 -9 -3 -12 -46 -12
-153 0 -120 4 -160 19 -207 14 -41 22 -54 28 -45 7 9 8 5 4 -12 -3 -17 2 -38
16 -60 12 -19 22 -37 23 -40 3 -17 27 -50 34 -46 5 3 17 -4 27 -17 l19 -22
-22 19 c-13 11 -23 16 -23 11 0 -13 58 -74 64 -68 3 4 6 0 6 -8 0 -13 29 -40
103 -98 24 -19 21 -6 -5 19 -12 11 -16 20 -10 20 7 0 22 -15 33 -34 21 -36 85
-70 194 -102 92 -28 378 -23 360 6 -3 5 0 12 6 16 8 5 9 3 4 -6 -12 -19 37 -5
120 35 97 47 203 139 263 229 137 205 160 445 63 677 -34 80 -101 176 -120
171 -7 -1 -9 2 -6 9 9 14 -55 81 -72 75 -7 -3 -10 1 -6 10 3 8 1 14 -5 12 -6
-2 -17 6 -25 17 -13 17 -17 18 -33 5 -17 -14 -18 -14 -5 2 11 15 11 19 -5 25
-11 3 -30 15 -43 25 -13 10 -29 18 -35 18 -6 0 -5 -4 2 -9 11 -7 11 -9 -2 -14
-9 -4 -15 -3 -15 1 4 23 -3 34 -17 28 -10 -4 -13 -2 -8 6 5 8 2 9 -9 5 -49
-20 -53 -20 -32 -3 17 15 17 17 3 12 -10 -3 -18 -1 -18 5 0 6 -7 9 -15 5 -8
-3 -15 -1 -15 4 0 15 -40 12 -40 -2 0 -8 -5 -6 -11 4 -8 14 -26 17 -109 17
-55 0 -102 -4 -105 -9z m-240 -110 c3 -5 1 -10 -4 -10 -6 0 -11 5 -11 10 0 6
2 10 4 10 3 0 8 -4 11 -10z m352 -26 c-3 -3 -12 -4 -19 -1 -8 3 -5 6 6 6 11 1
17 -2 13 -5z m83 -35 c25 -5 54 -11 65 -14 76 -17 235 -132 259 -185 3 -8 17
-33 30 -55 13 -22 22 -43 19 -47 -2 -5 0 -8 5 -8 8 0 25 -53 26 -85 1 -5 6
-14 11 -18 6 -5 1 -7 -10 -4 -11 2 -26 -2 -33 -10 -10 -11 -9 -13 8 -13 14 0
20 -6 19 -22 -1 -17 -2 -19 -6 -5 -2 9 -11 17 -19 17 -8 0 -17 7 -21 16 -5 13
-8 13 -15 2 -8 -10 -9 -10 -5 2 2 8 11 14 19 12 9 -1 18 6 21 17 4 17 1 18
-23 11 -16 -5 -32 -5 -35 -2 -4 4 -4 -4 0 -16 6 -21 4 -23 -15 -17 -15 5 -26
2 -31 -6 -7 -11 -9 -10 -9 4 0 11 8 17 23 17 16 0 18 3 8 9 -10 7 -9 12 8 23
22 15 22 15 1 21 -14 4 -18 10 -13 23 4 11 3 15 -4 11 -6 -4 -14 0 -17 8 -4
10 2 19 17 25 13 5 16 9 7 9 -9 1 -26 -6 -38 -15 -13 -9 -26 -13 -29 -10 -4 3
-1 6 5 6 7 0 12 5 12 11 0 5 -4 7 -10 4 -5 -3 -10 1 -10 9 0 8 4 17 9 20 5 3
11 16 14 28 6 22 6 22 -8 3 -8 -11 -20 -27 -27 -35 -7 -8 -12 -18 -10 -22 1
-5 -2 -8 -8 -8 -5 0 -10 12 -11 28 0 27 -1 27 -11 5 -17 -36 -28 -27 -30 25
-1 43 -2 44 -5 10 -2 -21 -8 -38 -14 -38 -5 0 -9 -7 -9 -15 0 -8 -9 -15 -20
-15 -17 0 -19 -5 -14 -25 4 -16 2 -25 -6 -25 -6 0 -8 -5 -5 -11 5 -7 -7 -9
-36 -6 -78 9 -104 19 -131 51 -15 17 -28 25 -28 19 0 -7 -7 -13 -15 -13 -9 0
-12 6 -8 18 3 9 2 14 -2 9 -5 -4 -16 -1 -24 7 -9 8 -29 17 -44 20 -16 3 -35
11 -44 17 -12 11 -14 10 -11 -6 1 -10 -3 -20 -10 -22 -8 -3 -10 1 -6 14 5 13
2 12 -10 -5 -10 -12 -21 -20 -26 -17 -16 10 -42 -8 -37 -26 3 -10 -2 -20 -10
-23 -11 -5 -12 -10 -5 -19 6 -7 7 -18 3 -26 -6 -10 -11 -9 -24 3 -19 19 -28
20 -25 4 2 -7 -7 -14 -19 -16 -27 -4 -30 -27 -6 -36 15 -6 15 -9 3 -16 -11 -7
-7 -10 14 -16 l29 -7 -29 -13 -29 -12 41 -1 c52 -1 118 -26 88 -34 -13 -3 -9
-5 11 -6 29 -1 30 0 31 47 1 26 5 61 9 77 4 17 4 27 0 23 -4 -4 -14 -29 -21
-55 -11 -40 -13 -43 -13 -18 -2 43 -17 64 -23 31 -3 -14 -1 -29 4 -34 5 -5 2
-14 -7 -22 -13 -11 -21 -7 -56 29 -22 22 -35 41 -29 41 6 0 8 5 5 10 -11 19
29 10 51 -11 l22 -20 -5 45 c-4 29 -1 51 7 61 16 19 30 10 30 -18 1 -22 1 -22
12 -2 21 37 54 48 43 15 -10 -31 21 -25 40 8 l16 27 -4 -33 c-3 -29 -1 -32 17
-26 12 4 23 11 24 15 2 5 8 6 13 3 6 -3 16 0 24 6 11 10 15 7 21 -14 3 -15 4
-40 0 -57 -5 -27 -4 -29 19 -23 25 6 30 -1 19 -30 -3 -9 -10 -13 -15 -10 -5 3
-8 0 -7 -8 2 -7 -3 -12 -10 -10 -8 1 -11 -2 -7 -7 11 -19 -86 -56 -137 -52
-23 2 -28 -1 -28 -21 0 -52 -63 -85 -104 -55 -17 13 -17 16 -3 44 l16 31 -41
6 c-49 8 -64 16 -49 25 6 4 3 11 -9 19 -15 9 -22 9 -32 -2 -7 -7 -19 -11 -26
-8 -6 2 -12 -4 -12 -13 0 -11 5 -15 14 -12 8 3 17 -1 20 -9 3 -8 10 -14 16
-14 6 0 8 6 4 13 -5 7 -1 6 10 -3 17 -13 17 -14 -1 -21 -10 -4 -12 -8 -5 -8 7
-1 10 -5 7 -11 -3 -5 -1 -10 4 -10 6 0 11 6 11 13 0 9 2 9 9 -1 9 -16 20 -15
41 1 13 10 13 10 3 -4 -7 -9 -9 -20 -5 -25 4 -4 0 -3 -9 4 -14 10 -18 10 -23
-4 -9 -25 -7 -41 4 -24 7 11 10 11 10 2 0 -8 5 -10 12 -6 7 4 2 -6 -10 -24
-16 -21 -28 -29 -39 -25 -10 4 -14 2 -10 -4 5 -7 0 -9 -14 -6 -16 4 -17 8 -7
14 7 5 9 9 3 9 -5 0 1 9 14 19 23 18 23 18 2 24 -11 3 -19 1 -15 -4 3 -5 -2
-9 -11 -9 -9 0 -13 5 -10 10 4 6 3 10 -2 9 -22 -4 -33 3 -33 19 0 13 2 14 9 3
6 -8 16 -11 31 -6 15 5 19 10 10 15 -6 4 -11 11 -10 16 1 5 -4 10 -12 12 -10
3 -10 1 -1 -5 7 -5 8 -14 4 -21 -6 -9 -12 -7 -26 8 -10 11 -13 20 -7 20 7 0
12 5 12 11 0 6 -6 9 -14 6 -18 -7 -36 12 -29 32 4 14 3 14 -6 1 -6 -8 -11 -13
-12 -10 0 3 -2 13 -4 23 -2 9 1 17 6 17 6 0 7 5 4 10 -3 6 0 10 7 10 10 0 10
2 -1 9 -11 7 -11 16 -1 47 12 40 15 49 45 122 18 41 39 54 48 30 3 -7 4 -3 4
9 -1 12 -5 19 -9 17 -4 -3 -8 0 -8 5 0 6 5 12 10 12 6 1 14 2 19 3 5 0 13 5
18 10 5 5 2 6 -6 1 -9 -5 -12 -3 -9 6 3 8 11 13 17 12 6 -2 11 4 11 12 0 8 7
15 16 15 8 0 13 4 10 9 -3 5 1 11 9 14 9 4 12 1 8 -9 -5 -15 5 -18 31 -8 9 3
16 13 16 21 0 8 -5 11 -11 7 -7 -4 -10 -1 -7 7 7 21 126 79 183 88 69 12 142
12 195 0z m524 -215 c3 -8 2 -12 -4 -9 -6 3 -10 10 -10 16 0 14 7 11 14 -7z
m-1247 -66 c-3 -8 -6 -5 -6 6 -1 11 2 17 5 13 3 -3 4 -12 1 -19z m1143 18 c0
-2 -7 -7 -16 -10 -8 -3 -12 -2 -9 4 6 10 25 14 25 6z m-206 -78 c17 -23 20
-55 10 -82 -7 -19 -60 -22 -67 -3 -3 6 -6 2 -6 -10 -1 -16 -7 -23 -20 -23 -28
0 -46 28 -46 70 0 52 18 70 71 70 33 0 46 -5 58 -22z m-244 -45 c0 -23 -1 -23
-17 -7 -24 24 -25 43 -2 37 12 -4 19 -14 19 -30z m78 -2 c3 -8 0 -11 -7 -7 -6
4 -11 3 -11 -2 0 -5 -7 -9 -15 -9 -11 0 -12 4 -4 14 9 10 8 13 -4 13 -8 0 -18
-6 -20 -12 -3 -8 -6 -5 -6 5 -1 15 5 18 31 15 17 -2 34 -9 36 -17z m2 -41 c0
-11 -7 -20 -15 -20 -8 0 -15 -5 -15 -11 0 -5 5 -7 10 -4 6 3 10 1 10 -5 0 -6
6 -8 13 -4 6 4 9 3 4 -1 -11 -12 -49 -17 -42 -6 3 6 -4 15 -15 21 -11 6 -20
16 -20 23 0 7 4 6 10 -3 8 -12 10 -12 10 5 0 11 4 16 8 10 12 -16 32 -16 32 0
0 8 2 15 5 15 3 0 5 -9 5 -20z m367 -32 c-3 -7 -5 -2 -5 12 0 14 2 19 5 13 2
-7 2 -19 0 -25z m-144 -3 c28 1 47 -3 47 -9 0 -22 -16 -33 -40 -30 -38 4 -38
6 0 14 32 7 30 8 -22 10 -80 4 -81 4 -85 17 -3 9 4 10 24 4 15 -4 49 -7 76 -6z
m-337 -21 l-29 -16 24 -20 c13 -11 18 -17 12 -13 -7 3 -13 2 -13 -4 0 -5 8
-12 18 -15 9 -3 2 -4 -15 -2 -18 1 -33 0 -33 -4 0 -3 -17 -5 -37 -3 l-38 4 40
-16 c22 -8 41 -15 41 -15 1 0 4 -7 7 -14 4 -10 1 -13 -7 -10 -11 4 -44 9 -84
13 -7 0 -11 5 -8 10 3 5 -2 8 -11 7 -9 0 -18 4 -20 11 -2 6 12 14 36 18 23 4
44 12 47 17 4 7 2 8 -4 4 -7 -4 -19 -3 -28 2 -13 7 -11 11 15 21 17 7 35 18
40 25 5 6 25 13 43 14 l33 2 -29 -16z m64 12 c0 -3 -4 -8 -10 -11 -5 -3 -10
-1 -10 4 0 6 5 11 10 11 6 0 10 -2 10 -4z m598 -37 c-3 -20 -5 -19 -9 9 -3 20
-2 29 4 23 5 -5 7 -19 5 -32z m-653 11 c-3 -5 -12 -10 -18 -10 -7 0 -6 4 3 10
19 12 23 12 15 0z m295 0 c0 -5 -4 -10 -10 -10 -5 0 -10 5 -10 10 0 6 5 10 10
10 6 0 10 -4 10 -10z m165 0 c-3 -5 -14 -10 -23 -10 -15 0 -15 2 -2 10 20 13
33 13 25 0z m-405 -15 c-7 -8 -14 -15 -15 -15 -2 0 -5 7 -9 15 -4 10 1 15 16
15 17 0 18 -2 8 -15z m50 0 c0 -1 -9 -5 -19 -8 -13 -3 -18 -1 -14 9 4 10 33
10 33 -1z m370 -5 c0 -5 -9 -10 -20 -10 -11 0 -20 -6 -20 -14 0 -18 25 -38 35
-28 5 4 5 1 0 -7 -4 -7 -9 -23 -10 -35 -4 -33 -4 -33 -22 -40 -15 -6 -15 -5 1
13 12 14 14 21 6 26 -9 6 -9 10 1 17 10 7 8 8 -7 4 -14 -4 -21 -2 -21 8 0 8 6
12 15 8 13 -5 13 -2 -1 18 -18 25 -23 44 -9 37 4 -3 16 -1 27 4 11 4 21 8 23
8 1 1 2 -3 2 -9z m-992 -18 c2 -6 -6 -10 -16 -9 -12 1 -18 6 -15 14 6 16 25
13 31 -5z m146 2 c5 -14 4 -15 -9 -4 -17 14 -19 20 -6 20 5 0 12 -7 15 -16z
m766 6 c0 -5 -5 -10 -11 -10 -5 0 -7 5 -4 10 3 6 8 10 11 10 2 0 4 -4 4 -10z
m-572 -53 c6 -15 12 -36 12 -45 -1 -14 -4 -13 -19 5 -10 12 -22 19 -25 15 -4
-3 -4 2 0 12 5 12 4 17 -2 13 -6 -4 -9 6 -6 23 5 33 18 25 40 -23z m275 23
c-3 -12 -8 -19 -11 -16 -5 6 5 36 12 36 2 0 2 -9 -1 -20z m-603 -26 c0 -9 10
-24 22 -33 15 -13 18 -20 9 -25 -7 -5 -10 -2 -9 5 2 7 -4 14 -14 16 -9 3 -18
-3 -21 -14 -2 -10 -3 1 -3 24 1 24 4 43 9 43 4 0 7 -7 7 -16z m564 1 c-4 -8
-1 -15 7 -15 7 0 10 -3 6 -6 -3 -3 -15 1 -27 9 -20 14 -21 16 -3 20 10 3 19 5
20 6 1 0 0 -6 -3 -14z m76 11 c0 -2 -7 -7 -16 -10 -8 -3 -12 -2 -9 4 6 10 25
14 25 6z m-843 -28 c-3 -8 -6 -5 -6 6 -1 11 2 17 5 13 3 -3 4 -12 1 -19z m652
-24 c2 -2 -4 -4 -15 -4 -16 0 -17 -2 -4 -11 12 -8 10 -9 -7 -4 -16 4 -23 2
-23 -7 -1 -8 -6 -6 -15 6 -8 10 -12 23 -9 27 4 7 63 1 73 -7z m106 7 c3 -5 2
-12 -3 -15 -5 -3 -9 1 -9 9 0 17 3 19 12 6z m372 -13 c-3 -8 -6 -5 -6 6 -1 11
2 17 5 13 3 -3 4 -12 1 -19z m-661 0 c5 -7 3 -8 -6 -3 -9 6 -10 2 -5 -15 5
-15 4 -20 -4 -16 -13 9 -15 46 -2 46 6 0 13 -5 17 -12z m627 -3 c4 -8 3 -16
-1 -19 -4 -3 -9 4 -9 15 -2 23 3 25 10 4z m-528 -4 c3 -5 1 -12 -5 -16 -5 -3
-10 1 -10 9 0 18 6 21 15 7z m280 -12 c11 -17 2 -18 -19 -3 -17 12 -17 14 -4
14 9 0 20 -5 23 -11z m-70 -33 c38 -4 43 -3 20 3 -30 9 -30 9 -4 10 34 1 97
-24 78 -32 -8 -3 -4 -6 10 -6 17 -1 22 3 17 14 -3 9 0 15 9 15 9 0 12 -6 9
-15 -4 -10 0 -15 11 -15 9 0 13 5 10 10 -3 6 3 10 14 10 12 0 21 -4 21 -9 0
-14 -50 -23 -170 -31 -8 0 -41 1 -72 2 -47 3 -54 1 -37 -8 20 -10 20 -11 3
-19 -18 -7 -18 -7 1 -15 11 -5 14 -9 8 -9 -7 -1 -13 -10 -13 -21 0 -20 1 -20
24 -3 18 13 21 21 14 31 -9 10 -6 11 15 3 20 -8 40 -6 84 9 32 11 45 17 28 14
-16 -3 -42 -6 -57 -6 -16 -1 -25 -5 -21 -11 3 -6 1 -7 -6 -3 -6 4 -9 12 -5 17
3 6 -6 8 -23 4 -26 -5 -26 -5 -5 5 16 7 30 7 43 0 13 -8 25 -7 40 1 12 6 38 9
58 5 20 -3 50 0 68 6 39 14 52 5 29 -21 -17 -18 -17 -19 1 -24 16 -4 16 -5 -2
-6 -11 -1 -27 -6 -35 -11 -11 -8 -7 -9 15 -4 23 4 26 3 15 -5 -10 -7 -11 -11
-2 -11 6 0 12 -9 12 -20 0 -12 7 -20 18 -20 14 0 15 2 2 10 -13 9 -13 10 0 11
10 0 11 2 3 6 -7 2 -13 9 -13 14 0 6 4 8 9 4 5 -3 17 2 26 11 13 14 14 19 3
26 -9 7 -6 8 10 5 13 -3 25 1 31 10 6 11 13 13 25 6 14 -8 11 -11 -19 -23 -19
-8 -35 -17 -35 -22 0 -4 6 -5 14 -2 25 9 29 -17 6 -40 -18 -20 -30 -23 -73
-21 -46 3 -50 2 -32 -11 10 -8 28 -14 39 -14 12 0 16 -4 11 -9 -13 -11 -106
-21 -100 -10 9 14 -10 17 -22 4 -15 -17 16 -26 61 -19 26 4 28 3 13 -6 -9 -6
-14 -16 -11 -22 4 -7 2 -8 -4 -4 -6 4 -26 -1 -44 -10 -140 -72 -321 -70 -471
6 l-59 30 -28 -24 c-16 -13 -26 -28 -22 -32 4 -5 0 -3 -8 3 -8 6 -23 9 -33 8
-14 -3 -16 0 -7 10 6 8 20 12 31 10 11 -2 29 3 39 13 19 16 18 17 -27 63 -58
59 -62 75 -17 84 19 3 39 3 44 0 6 -3 10 -1 10 5 0 8 -18 10 -57 6 -41 -4 -49
-3 -28 3 l30 9 -32 1 c-20 1 -37 9 -47 23 -17 23 -12 42 9 34 7 -2 16 -2 19 2
12 12 58 14 51 2 -4 -6 -1 -11 6 -9 41 5 51 -1 46 -27 -4 -20 0 -28 15 -32 15
-4 17 -7 6 -14 -8 -5 -3 -6 15 -2 16 4 46 7 67 8 21 0 36 5 33 9 -3 5 -27 6
-54 3 -40 -6 -49 -4 -49 9 0 8 6 15 13 16 6 0 3 4 -8 9 -17 7 -14 9 15 11 31
2 32 2 8 6 -16 2 -28 9 -28 14 0 14 64 10 86 -6 10 -8 24 -14 29 -15 6 0 3 4
-5 10 -24 15 -1 25 52 23 28 -1 58 2 67 8 9 5 39 7 66 4 28 -2 73 -7 100 -9z
m368 -7 c-14 -14 -83 -17 -83 -5 0 6 -4 5 -9 -2 -7 -11 -9 -11 -14 2 -5 13 3
15 54 15 37 -1 57 -5 52 -10z m-48 -29 c-3 -5 1 -10 10 -10 9 0 13 5 10 10 -3
6 -1 10 4 10 6 0 11 -7 11 -16 0 -13 -7 -15 -34 -10 -20 4 -37 2 -41 -4 -3 -5
-11 -10 -16 -10 -6 0 -7 5 -4 10 3 6 0 11 -7 11 -7 1 3 5 22 9 52 11 52 11 45
0z m42 -52 c-3 -8 -6 -5 -6 6 -1 11 2 17 5 13 3 -3 4 -12 1 -19z m-37 -8 c0
-5 -8 -10 -17 -10 -15 0 -16 2 -3 10 19 12 20 12 20 0z m-1042 -45 c-3 -3 -9
2 -12 12 -6 14 -5 15 5 6 7 -7 10 -15 7 -18z m191 -32 c-6 -7 -15 -10 -20 -7
-13 8 -3 21 15 21 12 0 13 -4 5 -14z m-52 -15 c-3 -8 -6 -5 -6 6 -1 11 2 17 5
13 3 -3 4 -12 1 -19z m-93 -24 c3 -8 2 -12 -4 -9 -6 3 -10 10 -10 16 0 14 7
11 14 -7z m123 1 c0 -8 -4 -15 -9 -15 -4 0 -8 7 -8 15 0 8 4 15 8 15 5 0 9 -7
9 -15z m902 2 c8 -10 7 -14 -2 -14 -8 0 -14 6 -14 14 0 7 1 13 2 13 2 0 8 -6
14 -13z m-934 -36 c-3 -2 -11 2 -20 9 -19 16 -20 2 0 -20 13 -15 13 -17 0 -17
-8 0 -13 3 -10 5 3 3 0 11 -6 18 -17 20 -2 36 21 22 11 -7 17 -14 15 -17z
m831 -4 c1 -9 -1 -19 -6 -22 -5 -3 -7 3 -6 12 2 10 -2 22 -8 26 -7 6 -6 7 3 5
8 -2 15 -12 17 -21z m80 -2 c1 -8 -1 -15 -6 -15 -10 0 -20 26 -13 34 8 8 16
-1 19 -19z m-49 0 c0 -8 -4 -12 -9 -9 -5 3 -6 10 -3 15 9 13 12 11 12 -6z
m-807 1 c0 -2 -7 -7 -16 -10 -8 -3 -12 -2 -9 4 6 10 25 14 25 6z m-5 -26 c-3
-5 -12 -10 -18 -10 -7 0 -6 4 3 10 19 12 23 12 15 0z m942 -5 c0 -8 -4 -12 -9
-9 -5 3 -6 10 -3 15 9 13 12 11 12 -6z m-813 -11 c3 -8 2 -12 -4 -9 -6 3 -10
10 -10 16 0 14 7 11 14 -7z m701 -21 c-2 -7 0 -13 5 -13 6 0 10 6 10 14 0 7 7
19 15 26 12 10 12 7 -1 -20 -9 -17 -20 -30 -26 -28 -5 2 -8 6 -6 10 2 3 -6 16
-17 28 l-20 23 23 -14 c12 -8 20 -20 17 -26z m-891 19 c3 -5 -1 -9 -9 -9 -8 0
-12 4 -9 9 3 4 7 8 9 8 2 0 6 -4 9 -8z m163 -17 c0 -8 -4 -15 -9 -15 -10 0
-11 14 -1 23 9 10 10 9 10 -8z m153 -1 c0 -2 -11 -3 -24 -2 -14 1 -23 5 -20 9
4 7 44 0 44 -7z m-214 -9 c-1 -8 -5 -17 -8 -21 -5 -4 -4 16 1 34 3 9 9 -1 7
-13z m652 8 c-10 -2 -18 -9 -18 -15 0 -6 -3 -9 -6 -5 -10 10 6 27 24 26 15 -1
15 -2 0 -6z m47 -2 c-3 -6 0 -13 7 -18 7 -4 14 -18 14 -30 1 -13 -3 -20 -8
-17 -5 3 -7 9 -4 12 4 3 0 15 -8 28 -8 12 -12 24 -9 28 10 9 15 7 8 -3z m58
-6 c4 -8 3 -16 -1 -19 -4 -3 -9 4 -9 15 -2 23 3 25 10 4z m-649 -24 c-2 -3
-12 3 -22 13 -16 17 -16 18 5 5 12 -7 20 -15 17 -18z m54 11 c2 -7 -1 -12 -8
-12 -6 0 -8 5 -4 12 5 8 2 9 -10 5 -11 -4 -15 -3 -11 4 8 12 27 7 33 -9z m193
-25 c-10 -9 -11 -8 -5 6 3 10 9 15 12 12 3 -3 0 -11 -7 -18z m96 8 c0 -8 -4
-12 -9 -9 -5 3 -6 10 -3 15 9 13 12 11 12 -6z m28 5 c3 -5 1 -10 -4 -10 -6 0
-11 5 -11 10 0 6 2 10 4 10 3 0 8 -4 11 -10z m195 1 c0 -6 -4 -12 -8 -15 -5
-3 -9 1 -9 9 0 8 4 15 9 15 4 0 8 -4 8 -9z m-537 -42 c-12 -19 -20 -25 -24
-17 -10 16 -1 30 13 22 7 -5 9 -2 6 8 -4 8 0 15 8 15 10 0 10 -6 -3 -28z m697
27 c0 -2 -8 -10 -17 -17 -16 -13 -17 -12 -4 4 13 16 21 21 21 13z m-620 -26
c-8 -5 -19 -10 -25 -10 -5 0 -3 5 5 10 8 5 20 10 25 10 6 0 3 -5 -5 -10z m133
3 c-7 -2 -19 -2 -25 0 -7 3 -2 5 12 5 14 0 19 -2 13 -5z m342 -3 c3 -5 1 -10
-4 -10 -6 0 -11 5 -11 10 0 6 2 10 4 10 3 0 8 -4 11 -10z m-151 -14 c-3 -8
-12 -17 -19 -20 -11 -4 -13 8 -6 32 1 1 8 2 16 2 8 0 12 -6 9 -14z m-234 0 c0
-2 -7 -7 -16 -10 -8 -3 -12 -2 -9 4 6 10 25 14 25 6z m280 0 c0 -2 -8 -10 -17
-17 -16 -13 -17 -12 -4 4 13 16 21 21 21 13z m80 0 c0 -2 -8 -10 -17 -17 -16
-13 -17 -12 -4 4 13 16 21 21 21 13z m-425 -37 c-4 -5 -12 -9 -18 -8 -9 0 -8
2 1 6 6 2 9 10 6 15 -4 7 -2 8 5 4 6 -4 9 -12 6 -17z m515 17 c0 -2 -6 -9 -14
-15 -11 -9 -16 -9 -22 0 -4 7 -3 9 4 5 6 -3 13 -2 17 4 6 10 15 14 15 6z
m-549 -33 c13 -16 12 -17 -3 -4 -10 7 -18 15 -18 17 0 8 8 3 21 -13z m-114 1
c-3 -3 -12 -4 -19 -1 -8 3 -5 6 6 6 11 1 17 -2 13 -5z m87 -2 c3 -5 -1 -9 -9
-9 -8 0 -12 4 -9 9 3 4 7 8 9 8 2 0 6 -4 9 -8z m230 -10 c2 -4 -4 -8 -14 -8
-10 0 -16 4 -14 8 3 4 9 8 14 8 5 0 11 -4 14 -8z m-250 -21 c4 -5 -3 -7 -14
-4 -23 6 -26 13 -6 13 8 0 17 -4 20 -9z m296 -41 c0 -5 -15 -9 -32 -9 l-33 1
30 8 c17 4 31 8 33 9 1 0 2 -3 2 -9z"/>
<path d="M1090 1180 c6 -11 13 -20 16 -20 2 0 0 9 -6 20 -6 11 -13 20 -16 20
-2 0 0 -9 6 -20z"/>
<path d="M1017 1159 c7 -7 15 -10 18 -7 3 3 -2 9 -12 12 -14 6 -15 5 -6 -5z"/>
<path d="M618 1133 c7 -3 16 -2 19 1 4 3 -2 6 -13 5 -11 0 -14 -3 -6 -6z"/>
<path d="M1063 1120 c6 -11 15 -20 19 -20 12 0 -3 28 -18 34 -11 4 -12 2 -1
-14z"/>
<path d="M1357 1074 c-4 -4 -4 -10 -1 -15 6 -10 34 0 34 12 0 10 -24 12 -33 3z"/>
<path d="M470 980 c8 -5 24 -10 34 -10 26 0 18 6 -19 14 -22 5 -26 4 -15 -4z"/>
<path d="M550 850 c-9 -6 -10 -10 -3 -10 6 0 15 5 18 10 8 12 4 12 -15 0z"/>
<path d="M549 794 c-7 -9 -6 -12 6 -10 22 3 40 23 20 23 -8 0 -20 -6 -26 -13z"/>
<path d="M1173 1053 c-1 -19 1 -22 8 -12 11 17 12 39 2 39 -5 0 -9 -12 -10
-27z"/>
<path d="M908 743 c6 -2 18 -2 25 0 6 3 1 5 -13 5 -14 0 -19 -2 -12 -5z"/>
<path d="M780 729 c0 -5 5 -7 10 -4 6 3 10 8 10 11 0 2 -4 4 -10 4 -5 0 -10
-5 -10 -11z"/>
<path d="M810 719 c0 -5 11 -9 25 -9 14 0 25 2 25 4 0 2 -11 6 -25 8 -14 3
-25 1 -25 -3z"/>
<path d="M1048 713 c6 -2 18 -2 25 0 6 3 1 5 -13 5 -14 0 -19 -2 -12 -5z"/>
<path d="M513 703 c15 -2 37 -2 50 0 12 2 0 4 -28 4 -27 0 -38 -2 -22 -4z"/>
<path d="M853 695 c-12 -8 -39 -19 -60 -24 l-38 -9 43 -1 c23 -1 42 4 42 9 0
6 17 2 38 -9 25 -13 43 -16 53 -10 10 6 6 9 -16 10 -27 2 -28 2 -5 6 49 9 41
20 -12 17 -40 -3 -49 -1 -35 7 9 6 27 7 38 4 15 -5 19 -4 15 4 -10 15 -38 14
-63 -4z"/>
<path d="M790 690 c-21 -7 -21 -8 -5 -9 11 0 27 4 35 9 18 11 5 11 -30 0z"/>
<path d="M1206 691 c-4 -5 -25 -12 -48 -16 -23 -4 -58 -13 -78 -20 l-35 -13
35 -6 c19 -4 46 -2 60 4 24 10 24 10 -7 7 -55 -6 -26 11 32 18 30 4 60 13 66
21 9 11 8 14 -4 14 -9 0 -18 -4 -21 -9z"/>
<path d="M501 686 c2 -2 22 -6 44 -9 27 -4 35 -3 25 3 -14 9 -79 15 -69 6z"/>
<path d="M810 650 c-31 -7 -32 -7 -7 -9 15 0 27 -5 27 -10 0 -5 11 -4 24 2 13
7 22 15 20 19 -6 9 -14 9 -64 -2z"/>
<path d="M1178 653 c7 -3 16 -2 19 1 4 3 -2 6 -13 5 -11 0 -14 -3 -6 -6z"/>
<path d="M565 629 c-15 -6 -11 -8 18 -8 20 -1 37 1 37 3 0 9 -37 12 -55 5z"/>
<path d="M678 633 c7 -3 16 -2 19 1 4 3 -2 6 -13 5 -11 0 -14 -3 -6 -6z"/>
<path d="M952 580 c0 -14 2 -19 5 -12 2 6 2 18 0 25 -3 6 -5 1 -5 -13z"/>
<path d="M952 503 c-2 -35 -11 -40 -42 -23 -26 14 -121 18 -117 5 2 -5 13 -9
24 -7 12 2 48 -6 82 -18 l60 -20 37 25 c20 13 50 27 68 30 73 11 77 14 18 10
-34 -3 -76 -12 -92 -20 -29 -15 -29 -15 -33 18 l-4 32 -1 -32z"/>
<path d="M416 1562 c-2 -4 5 -27 17 -52 18 -38 22 -41 25 -22 2 15 10 22 25
22 20 1 19 3 -11 30 -33 30 -47 36 -56 22z m44 -32 c0 -5 -4 -10 -10 -10 -5 0
-10 5 -10 10 0 6 5 10 10 10 6 0 10 -4 10 -10z"/>
<path d="M1438 1523 c-26 -31 -30 -43 -18 -58 7 -8 21 -15 32 -15 23 0 35 27
19 43 -8 8 -11 7 -11 -6 0 -9 -7 -17 -15 -17 -20 0 -19 13 4 41 20 24 20 24
36 4 l16 -20 -3 20 c-4 26 -40 31 -60 8z"/>
<path d="M353 1513 c-22 -8 -14 -38 18 -69 28 -26 31 -27 25 -7 -6 18 -2 22
21 26 26 4 26 5 6 12 -11 4 -23 15 -26 26 -5 19 -19 23 -44 12z m27 -23 c0 -5
-4 -10 -10 -10 -5 0 -10 5 -10 10 0 6 5 10 10 10 6 0 10 -4 10 -10z"/>
<path d="M1502 1458 c-18 -17 -29 -34 -27 -37 3 -3 20 9 37 27 18 17 29 34 26
37 -3 3 -19 -9 -36 -27z"/>
<path d="M290 1438 c0 -16 40 -78 51 -78 5 0 8 3 8 8 -3 20 2 32 16 32 29 0
14 16 -30 32 -29 11 -45 13 -45 6z m45 -28 c3 -5 1 -10 -4 -10 -6 0 -11 5 -11
10 0 6 2 10 4 10 3 0 8 -4 11 -10z"/>
<path d="M1528 1425 c-33 -29 -36 -39 -8 -30 18 6 20 3 14 -19 -4 -16 -2 -26
5 -26 6 0 11 7 11 15 0 8 6 15 14 15 24 0 39 26 26 49 -14 27 -29 26 -62 -4z
m46 -16 c-3 -5 -10 -7 -15 -3 -5 3 -7 10 -3 15 3 5 10 7 15 3 5 -3 7 -10 3
-15z"/>
<path d="M264 1375 c19 -14 19 -15 -7 -15 -34 0 -34 -13 -1 -39 34 -27 53 -27
29 -1 -18 20 -18 20 13 14 42 -9 42 10 0 36 -38 23 -62 26 -34 5z"/>
<path d="M1578 1351 c-32 -29 -32 -30 -14 -48 18 -17 18 -17 12 4 -5 17 0 25
24 39 16 10 30 22 30 26 0 16 -20 7 -52 -21z"/>
<path d="M1637 1304 c-4 -4 -7 -18 -7 -31 0 -14 -6 -23 -15 -23 -9 0 -12 6 -9
15 4 8 1 15 -6 15 -22 0 -6 -45 17 -48 18 -3 24 4 32 30 5 18 10 25 10 16 1
-10 6 -18 12 -18 16 0 6 44 -11 48 -9 1 -19 0 -23 -4z"/>
<path d="M190 1292 c0 -5 15 -24 33 -42 l32 -31 3 25 c2 14 10 26 18 26 8 0
14 5 14 10 0 6 -8 10 -19 10 -10 0 -33 3 -50 6 -18 4 -31 2 -31 -4z m50 -22
c0 -5 -2 -10 -4 -10 -3 0 -8 5 -11 10 -3 6 -1 10 4 10 6 0 11 -4 11 -10z"/>
<path d="M168 1228 c16 -16 15 -28 -3 -28 -8 0 -15 -4 -15 -8 0 -5 20 -9 45
-9 25 0 45 4 45 9 0 4 -6 8 -13 8 -8 0 -22 9 -32 20 -10 11 -23 20 -29 20 -6
0 -5 -5 2 -12z"/>
<path d="M1680 1229 c0 -5 5 -7 10 -4 6 3 10 8 10 11 0 2 -4 4 -10 4 -5 0 -10
-5 -10 -11z"/>
<path d="M131 1146 c-12 -29 -6 -50 8 -28 6 10 15 10 35 2 34 -13 46 -13 46 0
0 5 -16 12 -34 16 -20 3 -37 13 -39 23 -3 11 -7 8 -16 -13z"/>
<path d="M1665 1150 c-19 -7 -53 -40 -42 -40 2 0 18 7 33 15 16 8 39 15 52 15
13 0 20 4 17 10 -7 12 -32 12 -60 0z"/>
<path d="M1693 1109 c-18 -5 -33 -14 -33 -20 0 -6 7 -8 15 -5 9 3 18 -1 21 -9
7 -17 49 -20 59 -5 7 11 -12 51 -23 49 -4 0 -22 -5 -39 -10z m45 -20 c-2 -6
-8 -10 -13 -10 -5 0 -11 4 -13 10 -2 6 4 11 13 11 9 0 15 -5 13 -11z"/>
<path d="M120 1070 c-17 -10 -16 -12 27 -34 42 -21 52 -20 46 5 -4 12 0 25 8
30 9 6 1 9 -26 9 -22 0 -47 -4 -55 -10z m47 -16 c-3 -3 -12 -4 -19 -1 -8 3 -5
6 6 6 11 1 17 -2 13 -5z"/>
<path d="M104 995 c-8 -19 2 -45 16 -45 6 0 18 9 27 20 10 11 21 20 25 20 13
0 9 -28 -4 -33 -8 -3 -5 -6 5 -6 14 -1 18 5 15 26 -4 34 -22 40 -45 14 -22
-27 -36 -27 -28 -1 7 23 -3 27 -11 5z"/>
<path d="M1682 984 c-5 -9 -7 -25 -5 -35 7 -24 53 -26 53 -3 0 11 -6 14 -21 9
-15 -5 -20 -3 -17 6 3 8 19 15 37 17 30 3 32 2 26 -20 -6 -18 -4 -20 5 -12 6
7 10 20 8 30 -5 26 -72 32 -86 8z"/>
<path d="M100 880 c0 -5 20 -10 45 -10 25 0 45 5 45 10 0 6 -20 10 -45 10 -25
0 -45 -4 -45 -10z"/>
<path d="M1664 856 c22 -17 91 -22 101 -7 3 6 -11 9 -32 9 -21 -1 -49 2 -63 6
-24 7 -24 6 -6 -8z"/>
<path d="M100 841 c0 -6 9 -11 20 -11 11 0 20 -4 20 -9 0 -5 -9 -13 -20 -16
-11 -3 -20 -11 -20 -17 0 -6 8 -7 18 -3 9 4 29 12 45 17 45 16 36 32 -26 43
-25 5 -37 4 -37 -4z"/>
<path d="M1693 782 c-22 -3 -37 -27 -27 -43 9 -15 27 -10 20 6 -8 21 17 29 45
15 17 -10 19 -14 8 -21 -7 -4 -10 -11 -6 -15 11 -11 29 11 25 31 -4 20 -33 33
-65 27z"/>
<path d="M191 763 c-1 -27 -16 -30 -30 -5 -10 16 -10 16 -11 0 0 -21 -26 -24
-33 -5 -3 6 -6 0 -6 -14 -1 -25 1 -26 42 -22 53 6 64 16 49 45 l-11 23 0 -22z"/>
<path d="M1668 703 c-27 -7 -32 -36 -8 -55 28 -23 69 -23 77 -2 12 32 -29 65
-69 57z m52 -38 c0 -16 -17 -19 -44 -9 -26 10 -18 24 14 24 20 0 30 -5 30 -15z"/>
<path d="M148 689 c-19 -11 -23 -36 -10 -57 7 -9 16 -10 43 -1 45 15 52 23 44
48 -7 23 -47 28 -77 10z m62 -18 c0 -5 -13 -14 -30 -20 -23 -8 -30 -7 -30 3 0
7 3 16 7 19 10 10 53 8 53 -2z"/>
<path d="M1620 609 c-14 -25 -3 -41 11 -16 9 16 12 16 40 1 17 -8 36 -13 42
-11 10 3 -62 47 -77 47 -3 0 -10 -9 -16 -21z"/>
<path d="M203 574 c-18 -8 -33 -19 -33 -24 0 -14 5 -13 50 10 61 31 47 42 -17
14z"/>
<path d="M1592 550 c-17 -27 -15 -32 6 -19 14 9 25 8 50 -5 45 -23 40 -4 -6
22 -37 21 -38 21 -50 2z"/>
<path d="M228 538 c-21 -12 -38 -26 -38 -30 0 -12 14 -10 28 4 15 15 16 3 1
-24 -16 -30 -5 -32 40 -7 40 22 60 50 22 29 -30 -15 -34 -12 -17 12 31 43 19
48 -36 16z"/>
<path d="M1556 484 c-9 -24 -7 -29 6 -16 18 18 28 15 28 -10 0 -17 3 -19 12
-10 18 18 30 14 23 -8 -8 -26 1 -26 15 0 9 17 6 23 -22 40 -40 24 -54 25 -62
4z"/>
<path d="M278 462 c-40 -29 -52 -50 -18 -32 22 12 25 7 10 -20 -16 -31 3 -30
44 1 22 16 33 29 25 29 -8 0 -20 -5 -27 -12 -7 -7 -12 -8 -12 -2 0 6 5 15 11
21 6 6 9 18 7 26 -2 12 -10 10 -40 -11z"/>
<path d="M1509 419 c-9 -17 -8 -25 4 -36 16 -16 42 -9 31 8 -3 5 -10 7 -15 4
-5 -4 -9 1 -9 9 0 22 23 20 43 -2 21 -23 21 -32 2 -32 -8 0 -15 -4 -15 -10 0
-17 29 -11 39 9 8 15 5 24 -16 45 -31 32 -49 33 -64 5z"/>
<path d="M331 389 c-18 -16 -30 -33 -27 -36 4 -4 21 7 38 25 42 41 32 51 -11
11z"/>
<path d="M363 365 c-8 -21 6 -33 17 -15 5 8 12 11 17 7 4 -4 2 -16 -3 -25 -15
-23 -44 -28 -44 -8 0 9 -4 16 -10 16 -11 0 -13 -11 -4 -34 9 -23 37 -20 62 7
26 27 28 52 6 61 -25 9 -34 7 -41 -9z"/>
<path d="M1454 365 c-18 -14 -18 -15 6 -12 19 1 25 -3 23 -16 0 -11 4 -16 12
-13 19 7 27 -5 14 -21 -7 -8 -8 -13 -1 -13 5 0 15 7 22 15 11 13 8 21 -15 45
-33 35 -35 35 -61 15z"/>
<path d="M531 236 c-29 -30 -25 -70 7 -74 12 -2 22 1 22 7 0 6 -7 11 -15 11
-18 0 -19 14 -5 41 12 22 30 25 30 5 0 -8 5 -16 11 -18 9 -3 9 -9 0 -25 -16
-31 -14 -52 4 -29 17 22 35 13 28 -14 -10 -36 12 -21 29 22 18 41 15 68 -3 35
-14 -25 -29 -21 -29 9 0 14 -4 23 -10 19 -5 -3 -10 -2 -10 4 0 6 -8 15 -19 20
-14 8 -23 5 -40 -13z"/>
<path d="M1310 241 c0 -6 7 -14 16 -19 8 -5 21 -26 29 -48 10 -26 14 -32 15
-17 0 34 -17 71 -40 83 -12 7 -20 7 -20 1z"/>
<path d="M1255 200 c4 -14 9 -33 12 -42 10 -31 -34 -21 -53 11 -23 39 -34 30
-34 -26 0 -39 -2 -44 -15 -33 -8 6 -13 22 -12 33 2 18 -4 23 -32 25 l-33 3 7
-38 c9 -49 24 -77 25 -45 0 25 12 29 29 8 14 -16 51 -10 51 9 0 8 13 13 35 12
54 -2 63 15 37 65 -14 26 -20 33 -17 18z m-124 -53 c-1 -12 -15 -9 -19 4 -3 6
1 10 8 8 6 -3 11 -8 11 -12z m74 3 c3 -5 1 -10 -4 -10 -6 0 -11 5 -11 10 0 6
2 10 4 10 3 0 8 -4 11 -10z"/>
<path d="M672 183 c-7 -12 -16 -33 -22 -47 -15 -41 8 -31 25 11 17 41 15 70
-3 36z"/>
<path d="M694 155 c-8 -19 -14 -42 -14 -52 1 -17 1 -17 14 0 17 22 22 22 31
-5 8 -22 8 -22 12 5 2 15 9 27 14 27 20 0 4 43 -19 51 -20 8 -25 4 -38 -26z
m46 -6 c0 -5 -7 -9 -15 -9 -15 0 -20 12 -9 23 8 8 24 -1 24 -14z"/>
<path d="M775 120 c-19 -42 -15 -61 8 -42 10 9 16 9 25 0 17 -17 21 -8 13 36
-8 53 -24 55 -46 6z m35 -4 c0 -3 -4 -8 -10 -11 -5 -3 -10 -1 -10 4 0 6 5 11
10 11 6 0 10 -2 10 -4z"/>
<path d="M1058 142 c-7 -26 8 -88 23 -98 7 -4 9 1 5 14 -4 11 -10 40 -14 63
-7 36 -9 40 -14 21z"/>
<path d="M840 121 c0 -56 22 -81 35 -41 3 11 11 20 16 20 5 0 9 -9 9 -20 0
-30 27 -24 34 8 4 15 9 35 12 45 8 25 -11 21 -24 -5 l-11 -23 0 23 c-1 12 -7
22 -14 22 -8 0 -19 -10 -25 -22 l-11 -23 0 23 c-1 33 -21 27 -21 -7z"/>
<path d="M967 143 c-3 -5 -8 -24 -12 -44 -6 -35 -6 -35 29 -35 20 0 36 0 36 1
-21 69 -41 98 -53 78z m23 -43 c0 -5 -4 -10 -10 -10 -5 0 -10 5 -10 10 0 6 5
10 10 10 6 0 10 -4 10 -10z"/>
</g>
</svg>
